<svg xmlns="http://www.w3.org/2000/svg" xmlns:svgjs="http://svgjs.dev/svgjs" xmlns:xlink="http://www.w3.org/1999/xlink" version="1.1" viewBox="0 0 1422 800"><g fill="none" stroke="#00c68b" stroke-linecap="square" stroke-width="3.5"><line x1="52" x2="0" y1="0" y2="52" opacity=".29"/><line x1="52" x2="104" y1="0" y2="52" opacity=".79"/><line x1="104" x2="156" y1="0" y2="52" opacity=".28"/><line x1="156" x2="208" y1="0" y2="52" opacity=".48"/><line x1="208" x2="260" y1="0" y2="52" opacity=".25"/><line x1="260" x2="312" y1="0" y2="52" opacity=".52"/><line x1="312" x2="364" y1="0" y2="52" opacity=".49"/><line x1="364" x2="416" y1="0" y2="52" opacity=".63"/><line x1="468" x2="416" y1="0" y2="52" opacity=".09"/><line x1="520" x2="468" y1="0" y2="52" opacity=".8"/><line x1="520" x2="572" y1="0" y2="52" opacity=".99"/><line x1="572" x2="624" y1="0" y2="52" opacity=".95"/><line x1="624" x2="676" y1="0" y2="52" opacity=".56"/><line x1="676" x2="728" y1="0" y2="52" opacity=".84"/><line x1="780" x2="728" y1="0" y2="52" opacity=".89"/><line x1="832" x2="780" y1="0" y2="52" opacity=".5"/><line x1="884" x2="832" y1="0" y2="52" opacity=".13"/><line x1="884" x2="936" y1="0" y2="52" opacity=".9"/><line x1="988" x2="936" y1="0" y2="52" opacity=".27"/><line x1="988" x2="1040" y1="0" y2="52" opacity=".75"/><line x1="1040" x2="1092" y1="0" y2="52" opacity=".35"/><line x1="1092" x2="1144" y1="0" y2="52" opacity=".82"/><line x1="1144" x2="1196" y1="0" y2="52" opacity=".62"/><line x1="1248" x2="1196" y1="0" y2="52" opacity=".07"/><line x1="1300" x2="1248" y1="0" y2="52" opacity=".64"/><line x1="1352" x2="1300" y1="0" y2="52" opacity=".22"/><line x1="1404" x2="1352" y1="0" y2="52" opacity=".21"/><line x1="1456" x2="1404" y1="0" y2="52" opacity=".51"/><line x1="52" x2="0" y1="52" y2="104" opacity=".83"/><line x1="52" x2="104" y1="52" y2="104" opacity=".6"/><line x1="104" x2="156" y1="52" y2="104" opacity=".84"/><line x1="156" x2="208" y1="52" y2="104" opacity=".32"/><line x1="260" x2="208" y1="52" y2="104" opacity=".23"/><line x1="260" x2="312" y1="52" y2="104" opacity=".59"/><line x1="364" x2="312" y1="52" y2="104" opacity=".8"/><line x1="364" x2="416" y1="52" y2="104" opacity=".21"/><line x1="416" x2="468" y1="52" y2="104" opacity=".12"/><line x1="468" x2="520" y1="52" y2="104" opacity=".16"/><line x1="520" x2="572" y1="52" y2="104" opacity=".95"/><line x1="624" x2="572" y1="52" y2="104" opacity=".24"/><line x1="624" x2="676" y1="52" y2="104" opacity=".53"/><line x1="728" x2="676" y1="52" y2="104" opacity=".08"/><line x1="728" x2="780" y1="52" y2="104" opacity=".71"/><line x1="780" x2="832" y1="52" y2="104" opacity=".74"/><line x1="832" x2="884" y1="52" y2="104" opacity=".36"/><line x1="884" x2="936" y1="52" y2="104" opacity=".93"/><line x1="936" x2="988" y1="52" y2="104" opacity=".68"/><line x1="988" x2="1040" y1="52" y2="104" opacity=".2"/><line x1="1040" x2="1092" y1="52" y2="104" opacity=".15"/><line x1="1092" x2="1144" y1="52" y2="104" opacity=".74"/><line x1="1196" x2="1144" y1="52" y2="104" opacity=".84"/><line x1="1248" x2="1196" y1="52" y2="104" opacity=".22"/><line x1="1300" x2="1248" y1="52" y2="104" opacity=".79"/><line x1="1352" x2="1300" y1="52" y2="104" opacity=".74"/><line x1="1404" x2="1352" y1="52" y2="104" opacity=".29"/><line x1="1404" x2="1456" y1="52" y2="104" opacity=".51"/><line x1="0" x2="52" y1="104" y2="156" opacity=".9"/><line x1="52" x2="104" y1="104" y2="156" opacity=".98"/><line x1="104" x2="156" y1="104" y2="156" opacity=".33"/><line x1="208" x2="156" y1="104" y2="156" opacity=".13"/><line x1="208" x2="260" y1="104" y2="156" opacity=".88"/><line x1="260" x2="312" y1="104" y2="156" opacity=".87"/><line x1="364" x2="312" y1="104" y2="156" opacity=".76"/><line x1="364" x2="416" y1="104" y2="156" opacity=".33"/><line x1="468" x2="416" y1="104" y2="156" opacity=".2"/><line x1="520" x2="468" y1="104" y2="156" opacity=".27"/><line x1="520" x2="572" y1="104" y2="156" opacity=".72"/><line x1="572" x2="624" y1="104" y2="156" opacity=".15"/><line x1="676" x2="624" y1="104" y2="156" opacity=".3"/><line x1="676" x2="728" y1="104" y2="156" opacity=".88"/><line x1="728" x2="780" y1="104" y2="156" opacity=".12"/><line x1="780" x2="832" y1="104" y2="156" opacity=".32"/><line x1="884" x2="832" y1="104" y2="156" opacity=".11"/><line x1="884" x2="936" y1="104" y2="156" opacity=".5"/><line x1="988" x2="936" y1="104" y2="156" opacity=".99"/><line x1="988" x2="1040" y1="104" y2="156" opacity=".76"/><line x1="1040" x2="1092" y1="104" y2="156" opacity=".13"/><line x1="1144" x2="1092" y1="104" y2="156" opacity=".35"/><line x1="1196" x2="1144" y1="104" y2="156" opacity=".16"/><line x1="1196" x2="1248" y1="104" y2="156" opacity=".76"/><line x1="1248" x2="1300" y1="104" y2="156" opacity=".21"/><line x1="1352" x2="1300" y1="104" y2="156" opacity=".15"/><line x1="1404" x2="1352" y1="104" y2="156" opacity=".7"/><line x1="1404" x2="1456" y1="104" y2="156" opacity=".48"/><line x1="0" x2="52" y1="156" y2="208" opacity=".54"/><line x1="52" x2="104" y1="156" y2="208" opacity=".43"/><line x1="104" x2="156" y1="156" y2="208" opacity=".33"/><line x1="156" x2="208" y1="156" y2="208" opacity=".12"/><line x1="208" x2="260" y1="156" y2="208" opacity=".21"/><line x1="312" x2="260" y1="156" y2="208" opacity=".98"/><line x1="312" x2="364" y1="156" y2="208" opacity=".18"/><line x1="416" x2="364" y1="156" y2="208" opacity=".91"/><line x1="416" x2="468" y1="156" y2="208" opacity=".09"/><line x1="520" x2="468" y1="156" y2="208" opacity=".09"/><line x1="572" x2="520" y1="156" y2="208" opacity=".65"/><line x1="572" x2="624" y1="156" y2="208" opacity=".22"/><line x1="624" x2="676" y1="156" y2="208" opacity=".4"/><line x1="676" x2="728" y1="156" y2="208" opacity=".63"/><line x1="728" x2="780" y1="156" y2="208" opacity=".38"/><line x1="832" x2="780" y1="156" y2="208" opacity=".96"/><line x1="832" x2="884" y1="156" y2="208" opacity=".79"/><line x1="884" x2="936" y1="156" y2="208" opacity=".95"/><line x1="936" x2="988" y1="156" y2="208" opacity=".34"/><line x1="988" x2="1040" y1="156" y2="208" opacity=".65"/><line x1="1040" x2="1092" y1="156" y2="208" opacity=".32"/><line x1="1092" x2="1144" y1="156" y2="208" opacity=".78"/><line x1="1144" x2="1196" y1="156" y2="208" opacity=".63"/><line x1="1248" x2="1196" y1="156" y2="208" opacity=".54"/><line x1="1300" x2="1248" y1="156" y2="208" opacity=".47"/><line x1="1300" x2="1352" y1="156" y2="208" opacity=".79"/><line x1="1352" x2="1404" y1="156" y2="208" opacity=".28"/><line x1="1404" x2="1456" y1="156" y2="208" opacity=".47"/><line x1="0" x2="52" y1="208" y2="260" opacity=".33"/><line x1="104" x2="52" y1="208" y2="260" opacity=".38"/><line x1="104" x2="156" y1="208" y2="260" opacity=".63"/><line x1="156" x2="208" y1="208" y2="260" opacity=".83"/><line x1="260" x2="208" y1="208" y2="260" opacity=".15"/><line x1="312" x2="260" y1="208" y2="260" opacity=".55"/><line x1="312" x2="364" y1="208" y2="260" opacity=".75"/><line x1="416" x2="364" y1="208" y2="260" opacity=".75"/><line x1="416" x2="468" y1="208" y2="260" opacity=".62"/><line x1="468" x2="520" y1="208" y2="260" opacity=".89"/><line x1="520" x2="572" y1="208" y2="260" opacity=".87"/><line x1="572" x2="624" y1="208" y2="260" opacity=".28"/><line x1="624" x2="676" y1="208" y2="260" opacity=".28"/><line x1="676" x2="728" y1="208" y2="260" opacity=".63"/><line x1="780" x2="728" y1="208" y2="260" opacity=".64"/><line x1="780" x2="832" y1="208" y2="260" opacity=".69"/><line x1="832" x2="884" y1="208" y2="260" opacity=".21"/><line x1="884" x2="936" y1="208" y2="260" opacity=".39"/><line x1="988" x2="936" y1="208" y2="260" opacity=".09"/><line x1="988" x2="1040" y1="208" y2="260" opacity=".66"/><line x1="1040" x2="1092" y1="208" y2="260" opacity=".67"/><line x1="1144" x2="1092" y1="208" y2="260" opacity=".46"/><line x1="1144" x2="1196" y1="208" y2="260" opacity=".73"/><line x1="1196" x2="1248" y1="208" y2="260" opacity=".85"/><line x1="1300" x2="1248" y1="208" y2="260" opacity=".7"/><line x1="1300" x2="1352" y1="208" y2="260" opacity=".36"/><line x1="1352" x2="1404" y1="208" y2="260" opacity=".41"/><line x1="1404" x2="1456" y1="208" y2="260" opacity=".44"/><line x1="52" x2="0" y1="260" y2="312" opacity=".76"/><line x1="104" x2="52" y1="260" y2="312" opacity=".32"/><line x1="104" x2="156" y1="260" y2="312" opacity=".12"/><line x1="156" x2="208" y1="260" y2="312" opacity=".9"/><line x1="260" x2="208" y1="260" y2="312" opacity=".94"/><line x1="260" x2="312" y1="260" y2="312" opacity=".29"/><line x1="312" x2="364" y1="260" y2="312" opacity=".21"/><line x1="364" x2="416" y1="260" y2="312" opacity=".64"/><line x1="468" x2="416" y1="260" y2="312" opacity=".43"/><line x1="520" x2="468" y1="260" y2="312" opacity=".1"/><line x1="520" x2="572" y1="260" y2="312" opacity=".84"/><line x1="624" x2="572" y1="260" y2="312" opacity=".86"/><line x1="624" x2="676" y1="260" y2="312" opacity=".8"/><line x1="728" x2="676" y1="260" y2="312" opacity=".81"/><line x1="728" x2="780" y1="260" y2="312" opacity=".77"/><line x1="832" x2="780" y1="260" y2="312" opacity=".69"/><line x1="832" x2="884" y1="260" y2="312" opacity=".88"/><line x1="936" x2="884" y1="260" y2="312" opacity=".65"/><line x1="936" x2="988" y1="260" y2="312" opacity=".49"/><line x1="988" x2="1040" y1="260" y2="312" opacity=".66"/><line x1="1040" x2="1092" y1="260" y2="312" opacity=".64"/><line x1="1144" x2="1092" y1="260" y2="312" opacity=".59"/><line x1="1144" x2="1196" y1="260" y2="312" opacity=".88"/><line x1="1196" x2="1248" y1="260" y2="312" opacity=".45"/><line x1="1248" x2="1300" y1="260" y2="312" opacity=".38"/><line x1="1300" x2="1352" y1="260" y2="312" opacity=".81"/><line x1="1352" x2="1404" y1="260" y2="312" opacity=".84"/><line x1="1404" x2="1456" y1="260" y2="312" opacity=".47"/><line x1="0" x2="52" y1="312" y2="364" opacity=".46"/><line x1="52" x2="104" y1="312" y2="364" opacity=".57"/><line x1="104" x2="156" y1="312" y2="364" opacity=".75"/><line x1="208" x2="156" y1="312" y2="364" opacity=".32"/><line x1="208" x2="260" y1="312" y2="364" opacity=".84"/><line x1="312" x2="260" y1="312" y2="364" opacity=".48"/><line x1="364" x2="312" y1="312" y2="364" opacity=".52"/><line x1="416" x2="364" y1="312" y2="364" opacity=".56"/><line x1="468" x2="416" y1="312" y2="364" opacity=".98"/><line x1="468" x2="520" y1="312" y2="364" opacity=".42"/><line x1="572" x2="520" y1="312" y2="364" opacity=".76"/><line x1="624" x2="572" y1="312" y2="364" opacity=".18"/><line x1="624" x2="676" y1="312" y2="364" opacity=".42"/><line x1="676" x2="728" y1="312" y2="364" opacity=".51"/><line x1="780" x2="728" y1="312" y2="364" opacity=".25"/><line x1="780" x2="832" y1="312" y2="364" opacity=".96"/><line x1="884" x2="832" y1="312" y2="364" opacity=".99"/><line x1="884" x2="936" y1="312" y2="364" opacity=".27"/><line x1="936" x2="988" y1="312" y2="364" opacity=".09"/><line x1="988" x2="1040" y1="312" y2="364" opacity=".08"/><line x1="1040" x2="1092" y1="312" y2="364" opacity="1"/><line x1="1092" x2="1144" y1="312" y2="364" opacity=".19"/><line x1="1144" x2="1196" y1="312" y2="364" opacity=".61"/><line x1="1196" x2="1248" y1="312" y2="364" opacity=".6"/><line x1="1248" x2="1300" y1="312" y2="364" opacity=".96"/><line x1="1300" x2="1352" y1="312" y2="364" opacity=".91"/><line x1="1352" x2="1404" y1="312" y2="364" opacity=".65"/><line x1="1404" x2="1456" y1="312" y2="364" opacity=".94"/><line x1="0" x2="52" y1="364" y2="416" opacity=".99"/><line x1="104" x2="52" y1="364" y2="416" opacity=".9"/><line x1="104" x2="156" y1="364" y2="416" opacity=".36"/><line x1="156" x2="208" y1="364" y2="416" opacity=".57"/><line x1="208" x2="260" y1="364" y2="416" opacity=".85"/><line x1="312" x2="260" y1="364" y2="416" opacity=".98"/><line x1="364" x2="312" y1="364" y2="416" opacity=".22"/><line x1="364" x2="416" y1="364" y2="416" opacity=".92"/><line x1="468" x2="416" y1="364" y2="416" opacity=".38"/><line x1="468" x2="520" y1="364" y2="416" opacity=".63"/><line x1="520" x2="572" y1="364" y2="416" opacity=".44"/><line x1="572" x2="624" y1="364" y2="416" opacity=".48"/><line x1="624" x2="676" y1="364" y2="416" opacity=".45"/><line x1="728" x2="676" y1="364" y2="416" opacity=".48"/><line x1="728" x2="780" y1="364" y2="416" opacity=".62"/><line x1="780" x2="832" y1="364" y2="416" opacity=".29"/><line x1="832" x2="884" y1="364" y2="416" opacity=".92"/><line x1="936" x2="884" y1="364" y2="416" opacity=".77"/><line x1="988" x2="936" y1="364" y2="416" opacity=".68"/><line x1="988" x2="1040" y1="364" y2="416" opacity=".81"/><line x1="1040" x2="1092" y1="364" y2="416" opacity=".98"/><line x1="1144" x2="1092" y1="364" y2="416" opacity=".12"/><line x1="1144" x2="1196" y1="364" y2="416" opacity=".3"/><line x1="1196" x2="1248" y1="364" y2="416" opacity=".85"/><line x1="1248" x2="1300" y1="364" y2="416" opacity=".14"/><line x1="1300" x2="1352" y1="364" y2="416" opacity=".47"/><line x1="1352" x2="1404" y1="364" y2="416" opacity=".59"/><line x1="1456" x2="1404" y1="364" y2="416" opacity=".48"/><line x1="0" x2="52" y1="416" y2="468" opacity=".76"/><line x1="52" x2="104" y1="416" y2="468" opacity=".12"/><line x1="104" x2="156" y1="416" y2="468" opacity=".31"/><line x1="156" x2="208" y1="416" y2="468" opacity=".31"/><line x1="260" x2="208" y1="416" y2="468" opacity=".82"/><line x1="312" x2="260" y1="416" y2="468" opacity=".14"/><line x1="312" x2="364" y1="416" y2="468" opacity=".63"/><line x1="416" x2="364" y1="416" y2="468" opacity=".5"/><line x1="416" x2="468" y1="416" y2="468" opacity=".4"/><line x1="520" x2="468" y1="416" y2="468" opacity=".74"/><line x1="520" x2="572" y1="416" y2="468" opacity=".57"/><line x1="624" x2="572" y1="416" y2="468" opacity=".23"/><line x1="624" x2="676" y1="416" y2="468" opacity=".96"/><line x1="728" x2="676" y1="416" y2="468" opacity=".11"/><line x1="728" x2="780" y1="416" y2="468" opacity=".73"/><line x1="780" x2="832" y1="416" y2="468" opacity=".65"/><line x1="884" x2="832" y1="416" y2="468" opacity=".36"/><line x1="884" x2="936" y1="416" y2="468" opacity=".21"/><line x1="936" x2="988" y1="416" y2="468" opacity=".55"/><line x1="988" x2="1040" y1="416" y2="468" opacity=".38"/><line x1="1092" x2="1040" y1="416" y2="468" opacity=".12"/><line x1="1092" x2="1144" y1="416" y2="468" opacity=".66"/><line x1="1196" x2="1144" y1="416" y2="468" opacity=".36"/><line x1="1196" x2="1248" y1="416" y2="468" opacity=".95"/><line x1="1300" x2="1248" y1="416" y2="468" opacity=".34"/><line x1="1352" x2="1300" y1="416" y2="468" opacity=".96"/><line x1="1352" x2="1404" y1="416" y2="468" opacity=".95"/><line x1="1456" x2="1404" y1="416" y2="468" opacity=".96"/><line x1="52" x2="0" y1="468" y2="520" opacity=".36"/><line x1="52" x2="104" y1="468" y2="520" opacity=".74"/><line x1="156" x2="104" y1="468" y2="520" opacity=".81"/><line x1="156" x2="208" y1="468" y2="520" opacity=".08"/><line x1="208" x2="260" y1="468" y2="520" opacity=".73"/><line x1="260" x2="312" y1="468" y2="520" opacity=".08"/><line x1="312" x2="364" y1="468" y2="520" opacity=".37"/><line x1="364" x2="416" y1="468" y2="520" opacity=".31"/><line x1="416" x2="468" y1="468" y2="520" opacity=".26"/><line x1="520" x2="468" y1="468" y2="520" opacity=".71"/><line x1="520" x2="572" y1="468" y2="520" opacity=".49"/><line x1="572" x2="624" y1="468" y2="520" opacity=".47"/><line x1="676" x2="624" y1="468" y2="520" opacity=".24"/><line x1="728" x2="676" y1="468" y2="520" opacity=".43"/><line x1="780" x2="728" y1="468" y2="520" opacity=".85"/><line x1="780" x2="832" y1="468" y2="520" opacity=".89"/><line x1="832" x2="884" y1="468" y2="520" opacity=".4"/><line x1="884" x2="936" y1="468" y2="520" opacity=".89"/><line x1="936" x2="988" y1="468" y2="520" opacity=".41"/><line x1="988" x2="1040" y1="468" y2="520" opacity=".79"/><line x1="1040" x2="1092" y1="468" y2="520" opacity=".58"/><line x1="1092" x2="1144" y1="468" y2="520" opacity=".58"/><line x1="1196" x2="1144" y1="468" y2="520" opacity=".37"/><line x1="1196" x2="1248" y1="468" y2="520" opacity=".88"/><line x1="1248" x2="1300" y1="468" y2="520" opacity=".74"/><line x1="1300" x2="1352" y1="468" y2="520" opacity=".55"/><line x1="1352" x2="1404" y1="468" y2="520" opacity=".12"/><line x1="1456" x2="1404" y1="468" y2="520" opacity=".45"/><line x1="0" x2="52" y1="520" y2="572" opacity=".2"/><line x1="52" x2="104" y1="520" y2="572" opacity=".96"/><line x1="156" x2="104" y1="520" y2="572" opacity=".89"/><line x1="156" x2="208" y1="520" y2="572" opacity=".7"/><line x1="260" x2="208" y1="520" y2="572" opacity=".77"/><line x1="260" x2="312" y1="520" y2="572" opacity=".93"/><line x1="364" x2="312" y1="520" y2="572" opacity=".37"/><line x1="364" x2="416" y1="520" y2="572" opacity=".71"/><line x1="416" x2="468" y1="520" y2="572" opacity=".52"/><line x1="520" x2="468" y1="520" y2="572" opacity=".95"/><line x1="520" x2="572" y1="520" y2="572" opacity=".43"/><line x1="624" x2="572" y1="520" y2="572" opacity=".55"/><line x1="676" x2="624" y1="520" y2="572" opacity=".28"/><line x1="728" x2="676" y1="520" y2="572" opacity=".82"/><line x1="728" x2="780" y1="520" y2="572" opacity=".62"/><line x1="780" x2="832" y1="520" y2="572" opacity=".45"/><line x1="832" x2="884" y1="520" y2="572" opacity=".99"/><line x1="884" x2="936" y1="520" y2="572" opacity=".17"/><line x1="936" x2="988" y1="520" y2="572" opacity=".3"/><line x1="988" x2="1040" y1="520" y2="572" opacity=".15"/><line x1="1040" x2="1092" y1="520" y2="572" opacity=".14"/><line x1="1092" x2="1144" y1="520" y2="572" opacity=".36"/><line x1="1196" x2="1144" y1="520" y2="572" opacity=".88"/><line x1="1196" x2="1248" y1="520" y2="572" opacity=".23"/><line x1="1300" x2="1248" y1="520" y2="572" opacity=".69"/><line x1="1300" x2="1352" y1="520" y2="572" opacity=".84"/><line x1="1352" x2="1404" y1="520" y2="572" opacity=".72"/><line x1="1404" x2="1456" y1="520" y2="572" opacity=".1"/><line x1="52" x2="0" y1="572" y2="624" opacity=".69"/><line x1="104" x2="52" y1="572" y2="624" opacity=".41"/><line x1="104" x2="156" y1="572" y2="624" opacity=".43"/><line x1="208" x2="156" y1="572" y2="624" opacity=".71"/><line x1="208" x2="260" y1="572" y2="624" opacity=".75"/><line x1="260" x2="312" y1="572" y2="624" opacity=".91"/><line x1="312" x2="364" y1="572" y2="624" opacity=".71"/><line x1="416" x2="364" y1="572" y2="624" opacity=".17"/><line x1="416" x2="468" y1="572" y2="624" opacity=".3"/><line x1="520" x2="468" y1="572" y2="624" opacity=".84"/><line x1="520" x2="572" y1="572" y2="624" opacity=".46"/><line x1="572" x2="624" y1="572" y2="624" opacity=".37"/><line x1="624" x2="676" y1="572" y2="624" opacity=".22"/><line x1="676" x2="728" y1="572" y2="624" opacity=".51"/><line x1="728" x2="780" y1="572" y2="624" opacity=".88"/><line x1="780" x2="832" y1="572" y2="624" opacity=".29"/><line x1="832" x2="884" y1="572" y2="624" opacity=".99"/><line x1="936" x2="884" y1="572" y2="624" opacity=".14"/><line x1="988" x2="936" y1="572" y2="624" opacity=".66"/><line x1="988" x2="1040" y1="572" y2="624" opacity=".49"/><line x1="1092" x2="1040" y1="572" y2="624" opacity=".56"/><line x1="1092" x2="1144" y1="572" y2="624" opacity=".16"/><line x1="1144" x2="1196" y1="572" y2="624" opacity=".45"/><line x1="1196" x2="1248" y1="572" y2="624" opacity=".1"/><line x1="1248" x2="1300" y1="572" y2="624" opacity=".8"/><line x1="1300" x2="1352" y1="572" y2="624" opacity=".68"/><line x1="1352" x2="1404" y1="572" y2="624" opacity=".28"/><line x1="1404" x2="1456" y1="572" y2="624" opacity=".11"/><line x1="0" x2="52" y1="624" y2="676" opacity=".93"/><line x1="104" x2="52" y1="624" y2="676" opacity=".73"/><line x1="104" x2="156" y1="624" y2="676" opacity=".69"/><line x1="156" x2="208" y1="624" y2="676" opacity=".27"/><line x1="208" x2="260" y1="624" y2="676" opacity=".75"/><line x1="260" x2="312" y1="624" y2="676" opacity=".79"/><line x1="364" x2="312" y1="624" y2="676" opacity=".08"/><line x1="416" x2="364" y1="624" y2="676" opacity=".96"/><line x1="416" x2="468" y1="624" y2="676" opacity=".14"/><line x1="468" x2="520" y1="624" y2="676" opacity=".25"/><line x1="520" x2="572" y1="624" y2="676" opacity=".86"/><line x1="624" x2="572" y1="624" y2="676" opacity=".92"/><line x1="676" x2="624" y1="624" y2="676" opacity=".55"/><line x1="676" x2="728" y1="624" y2="676" opacity=".27"/><line x1="728" x2="780" y1="624" y2="676" opacity=".87"/><line x1="832" x2="780" y1="624" y2="676" opacity=".42"/><line x1="832" x2="884" y1="624" y2="676" opacity=".57"/><line x1="884" x2="936" y1="624" y2="676" opacity=".4"/><line x1="936" x2="988" y1="624" y2="676" opacity=".47"/><line x1="988" x2="1040" y1="624" y2="676" opacity=".25"/><line x1="1040" x2="1092" y1="624" y2="676" opacity=".52"/><line x1="1092" x2="1144" y1="624" y2="676" opacity=".99"/><line x1="1144" x2="1196" y1="624" y2="676" opacity=".97"/><line x1="1248" x2="1196" y1="624" y2="676" opacity=".84"/><line x1="1248" x2="1300" y1="624" y2="676" opacity=".64"/><line x1="1300" x2="1352" y1="624" y2="676" opacity=".83"/><line x1="1352" x2="1404" y1="624" y2="676" opacity=".22"/><line x1="1456" x2="1404" y1="624" y2="676" opacity=".56"/><line x1="52" x2="0" y1="676" y2="728" opacity=".6"/><line x1="52" x2="104" y1="676" y2="728" opacity=".24"/><line x1="104" x2="156" y1="676" y2="728" opacity=".69"/><line x1="208" x2="156" y1="676" y2="728" opacity=".31"/><line x1="208" x2="260" y1="676" y2="728" opacity=".32"/><line x1="312" x2="260" y1="676" y2="728" opacity=".14"/><line x1="312" x2="364" y1="676" y2="728" opacity=".95"/><line x1="416" x2="364" y1="676" y2="728" opacity=".93"/><line x1="416" x2="468" y1="676" y2="728" opacity=".4"/><line x1="468" x2="520" y1="676" y2="728" opacity=".42"/><line x1="520" x2="572" y1="676" y2="728" opacity=".74"/><line x1="572" x2="624" y1="676" y2="728" opacity=".78"/><line x1="676" x2="624" y1="676" y2="728" opacity=".88"/><line x1="676" x2="728" y1="676" y2="728" opacity=".47"/><line x1="728" x2="780" y1="676" y2="728" opacity=".71"/><line x1="780" x2="832" y1="676" y2="728" opacity=".82"/><line x1="832" x2="884" y1="676" y2="728" opacity=".65"/><line x1="936" x2="884" y1="676" y2="728" opacity=".51"/><line x1="936" x2="988" y1="676" y2="728" opacity=".83"/><line x1="1040" x2="988" y1="676" y2="728" opacity=".96"/><line x1="1040" x2="1092" y1="676" y2="728" opacity=".65"/><line x1="1144" x2="1092" y1="676" y2="728" opacity=".96"/><line x1="1144" x2="1196" y1="676" y2="728" opacity=".88"/><line x1="1248" x2="1196" y1="676" y2="728" opacity=".88"/><line x1="1248" x2="1300" y1="676" y2="728" opacity=".1"/><line x1="1300" x2="1352" y1="676" y2="728" opacity=".2"/><line x1="1404" x2="1352" y1="676" y2="728" opacity=".83"/><line x1="1404" x2="1456" y1="676" y2="728" opacity=".13"/><line x1="52" x2="0" y1="728" y2="780" opacity=".94"/><line x1="52" x2="104" y1="728" y2="780" opacity=".94"/><line x1="156" x2="104" y1="728" y2="780" opacity=".32"/><line x1="156" x2="208" y1="728" y2="780" opacity=".59"/><line x1="260" x2="208" y1="728" y2="780" opacity=".79"/><line x1="312" x2="260" y1="728" y2="780" opacity=".12"/><line x1="312" x2="364" y1="728" y2="780" opacity=".43"/><line x1="416" x2="364" y1="728" y2="780" opacity=".42"/><line x1="416" x2="468" y1="728" y2="780" opacity=".68"/><line x1="468" x2="520" y1="728" y2="780" opacity=".82"/><line x1="572" x2="520" y1="728" y2="780" opacity=".32"/><line x1="624" x2="572" y1="728" y2="780" opacity=".49"/><line x1="624" x2="676" y1="728" y2="780" opacity=".45"/><line x1="676" x2="728" y1="728" y2="780" opacity=".51"/><line x1="780" x2="728" y1="728" y2="780" opacity=".13"/><line x1="780" x2="832" y1="728" y2="780" opacity=".59"/><line x1="832" x2="884" y1="728" y2="780" opacity=".55"/><line x1="936" x2="884" y1="728" y2="780" opacity=".88"/><line x1="936" x2="988" y1="728" y2="780" opacity=".96"/><line x1="988" x2="1040" y1="728" y2="780" opacity=".15"/><line x1="1040" x2="1092" y1="728" y2="780" opacity=".36"/><line x1="1144" x2="1092" y1="728" y2="780" opacity=".69"/><line x1="1144" x2="1196" y1="728" y2="780" opacity=".25"/><line x1="1196" x2="1248" y1="728" y2="780" opacity=".58"/><line x1="1248" x2="1300" y1="728" y2="780" opacity=".86"/><line x1="1300" x2="1352" y1="728" y2="780" opacity=".92"/><line x1="1404" x2="1352" y1="728" y2="780" opacity=".19"/><line x1="1456" x2="1404" y1="728" y2="780" opacity=".14"/><line x1="0" x2="52" y1="780" y2="832" opacity=".71"/><line x1="104" x2="52" y1="780" y2="832" opacity=".76"/><line x1="156" x2="104" y1="780" y2="832" opacity=".18"/><line x1="208" x2="156" y1="780" y2="832" opacity=".41"/><line x1="208" x2="260" y1="780" y2="832" opacity=".51"/><line x1="312" x2="260" y1="780" y2="832" opacity=".43"/><line x1="312" x2="364" y1="780" y2="832" opacity=".86"/><line x1="416" x2="364" y1="780" y2="832" opacity=".42"/><line x1="416" x2="468" y1="780" y2="832" opacity=".39"/><line x1="468" x2="520" y1="780" y2="832" opacity=".68"/><line x1="520" x2="572" y1="780" y2="832" opacity=".3"/><line x1="572" x2="624" y1="780" y2="832" opacity=".13"/><line x1="624" x2="676" y1="780" y2="832" opacity=".77"/><line x1="676" x2="728" y1="780" y2="832" opacity=".98"/><line x1="728" x2="780" y1="780" y2="832" opacity=".84"/><line x1="780" x2="832" y1="780" y2="832" opacity=".35"/><line x1="832" x2="884" y1="780" y2="832" opacity=".36"/><line x1="884" x2="936" y1="780" y2="832" opacity=".76"/><line x1="936" x2="988" y1="780" y2="832" opacity=".6"/><line x1="988" x2="1040" y1="780" y2="832" opacity=".64"/><line x1="1092" x2="1040" y1="780" y2="832" opacity=".65"/><line x1="1092" x2="1144" y1="780" y2="832" opacity=".19"/><line x1="1196" x2="1144" y1="780" y2="832" opacity=".9"/><line x1="1196" x2="1248" y1="780" y2="832" opacity=".49"/><line x1="1248" x2="1300" y1="780" y2="832" opacity=".46"/><line x1="1300" x2="1352" y1="780" y2="832" opacity=".55"/><line x1="1352" x2="1404" y1="780" y2="832" opacity=".81"/><line x1="1404" x2="1456" y1="780" y2="832" opacity=".21"/></g></svg>