<svg width="50" height="50" viewBox="0 0 50 50" fill="none" xmlns="http://www.w3.org/2000/svg">
<g clip-path="url(#clip0_11_17)">
<path fill-rule="evenodd" clip-rule="evenodd" d="M45.51 17.68C45.41 17.71 45.3 17.68 45.2 17.59C44.96 17.35 44.78 17.05 44.61 16.76C44.6 16.74 44.58 16.73 44.57 16.71C44.52 16.63 44.48 16.55 44.44 16.48C44.2 16.06 44 15.62 43.87 15.14C43.84 15.03 43.87 14.93 43.92 14.86C43.9 14.77 43.87 14.68 43.85 14.59C43.81 14.42 43.88 14.29 43.99 14.22C42.16 10.86 39.47 8.03 36.23 6.02C35.67 6.25 35.02 6.38 34.29 6.38C31.94 6.38 30.45 5.04 29.81 3.35C28.17 2.96 26.45 2.74 24.69 2.74C22.77 2.74 20.92 2.99 19.14 3.45C18.51 5.16 17.02 6.51 14.65 6.51C13.98 6.51 13.39 6.4 12.86 6.21C9.79998 8.17 7.24998 10.87 5.47998 14.06C5.53998 14.57 5.51998 15.1 5.43998 15.61C5.62998 15.7 5.74998 15.97 5.55998 16.18C5.43998 16.31 5.30998 16.45 5.18998 16.58C4.86998 17.47 4.31998 18.26 3.53998 18.82C3.01998 20.69 2.72998 22.66 2.72998 24.69C2.72998 26.72 3.01998 28.72 3.54998 30.61C5.37998 31.67 6.12998 33.88 5.80998 35.89C7.78998 39.22 10.63 41.98 14.02 43.87C14.17 43.86 14.32 43.85 14.48 43.85C16.25 43.85 17.53 44.61 18.33 45.7C20.34 46.31 22.47 46.64 24.68 46.64C26.89 46.64 28.92 46.31 30.89 45.73C31.6 44.22 33.03 43.08 35.21 43.08C35.65 43.08 36.05 43.13 36.43 43.22C39.28 41.41 41.68 38.96 43.44 36.07C43.23 34.64 43.56 33.12 44.44 31.98C44.46 31.89 44.48 31.81 44.48 31.72C44.48 31.44 44.76 31.33 44.96 31.41C45.19 31.2 45.45 31.01 45.74 30.84C46.31 28.88 46.63 26.82 46.63 24.68C46.63 22.23 46.23 19.87 45.49 17.67L45.51 17.68ZM24.7 6.4C25.59 6.4 26.47 6.46 27.32 6.59L28.88 9.7L22.93 15.65L16.53 16.56L13.39 19.7L10.45 13.23C13.8 9.06 18.95 6.4 24.71 6.4H24.7ZM21.5 42.71C12.92 41.2 6.40998 33.71 6.40998 24.69C6.40998 21.93 7.01998 19.31 8.11998 16.96L11.08 23.47L12.36 28.61L18.93 27.52L20.74 28.42L16.94 33.35L22.51 41.09L21.51 42.71H21.5ZM25.64 42.97L26.9 40.93L21.5 33.42L24.91 28.99L29.03 28.42L39.96 34.79C36.85 39.48 31.63 42.66 25.65 42.96L25.64 42.97ZM41.66 31.56L29.78 24.63L23.17 25.55L19.5 23.71L15.09 24.44L14.84 23.42L18.25 20.01L24.65 19.1L33.33 10.42L32.1 7.96C38.52 10.8 43 17.23 43 24.7C43 27.13 42.53 29.44 41.67 31.56H41.66Z" fill="#45B75F"/>
<path d="M21.78 2.53C23.38 1.16 26 1.16 27.62 2.53L31.28 5.68C31.98 6.28 33.27 6.77 34.2 6.77H38.14C40.6 6.77 42.61 8.79 42.61 11.24V15.18C42.61 16.08 43.1 17.41 43.7 18.1L46.85 21.76C48.22 23.36 48.22 25.98 46.85 27.6L43.7 31.26C43.1 31.96 42.61 33.25 42.61 34.18V38.12C42.61 40.58 40.59 42.59 38.14 42.59H34.2C33.3 42.59 31.97 43.08 31.28 43.68L27.62 46.83C26.02 48.2 23.4 48.2 21.78 46.83L18.12 43.68C17.42 43.08 16.13 42.59 15.2 42.59H11.19C8.73001 42.59 6.72001 40.57 6.72001 38.12V34.16C6.72001 33.26 6.23001 31.96 5.65001 31.26L2.52001 27.57C1.18001 25.97 1.18001 23.37 2.52001 21.77L5.65001 18.08C6.23001 17.38 6.72001 16.09 6.72001 15.18V11.19C6.72001 8.73 8.74001 6.72 11.19 6.72H15.2C16.1 6.72 17.43 6.23 18.12 5.63L21.78 2.5V2.53Z" stroke="white" stroke-width="3" stroke-linecap="round" stroke-linejoin="round"/>
<path d="M16.92 26.13L22.51 31.74L33.71 20.52" stroke="white" stroke-width="3" stroke-linecap="round" stroke-linejoin="round"/>
</g>
<defs>
<clipPath id="clip0_11_17">
<rect width="49.39" height="49.38" fill="white"/>
</clipPath>
</defs>
</svg>
