<svg xmlns="http://www.w3.org/2000/svg" version="1.1" xmlns:xlink="http://www.w3.org/1999/xlink" xmlns:svgjs="http://svgjs.dev/svgjs" viewBox="0 0 800 800"><defs><linearGradient x1="50%" y1="0%" x2="50%" y2="100%" id="nnneon-grad"><stop stop-color="hsl(162, 100%, 58%)" stop-opacity="1" offset="0%"></stop><stop stop-color="hsl(270, 73%, 53%)" stop-opacity="1" offset="100%"></stop></linearGradient><filter id="nnneon-filter" x="-100%" y="-100%" width="400%" height="400%" filterUnits="objectBoundingBox" primitiveUnits="userSpaceOnUse" color-interpolation-filters="sRGB">
	<feGaussianBlur stdDeviation="17 8" x="0%" y="0%" width="100%" height="100%" in="SourceGraphic" edgeMode="none" result="blur"></feGaussianBlur></filter><filter id="nnneon-filter2" x="-100%" y="-100%" width="400%" height="400%" filterUnits="objectBoundingBox" primitiveUnits="userSpaceOnUse" color-interpolation-filters="sRGB">
	<feGaussianBlur stdDeviation="10 17" x="0%" y="0%" width="100%" height="100%" in="SourceGraphic" edgeMode="none" result="blur"></feGaussianBlur></filter></defs><g stroke-width="16" stroke="url(#nnneon-grad)" fill="none"><path d="M387.76019135977356 223.46888625969342C395.33418494634566 219.09682661340452 404.66581505365434 219.09682661340452 412.23980864022644 223.4701102405574L546.7602015197709 301.1353680053861C554.334195106343 305.507427651675 559.0000101599974 313.5893732968166 559.0000101599974 322.33471657025837V477.66523209991584C559.0000101599974 486.4105753733577 554.334195106343 494.49252101849925 546.7602015197709 498.865804645652L412.23980864022644 576.5310624104808C404.66581505365434 580.9031220567697 395.33418494634566 580.9031220567697 387.76019135977356 576.5298384296168L253.239798480229 498.86458066478804C245.6658048936569 494.49252101849925 240.99998984000257 486.4105753733577 240.99998984000257 477.66523209991584V322.33471657025837C240.99998984000257 313.5893732968166 245.6658048936569 305.507427651675 253.239798480229 301.13414402452213L387.76019135977356 223.46888625969342Z " filter="url(#nnneon-filter)"></path><path d="M399.76019135977356 223.46888625969342C407.33418494634566 219.09682661340452 416.66581505365434 219.09682661340452 424.23980864022644 223.4701102405574L558.7602015197709 301.1353680053861C566.334195106343 305.507427651675 571.0000101599974 313.5893732968166 571.0000101599974 322.33471657025837V477.66523209991584C571.0000101599974 486.4105753733577 566.334195106343 494.49252101849925 558.7602015197709 498.865804645652L424.23980864022644 576.5310624104808C416.66581505365434 580.9031220567697 407.33418494634566 580.9031220567697 399.76019135977356 576.5298384296168L265.239798480229 498.86458066478804C257.6658048936569 494.49252101849925 252.99998984000257 486.4105753733577 252.99998984000257 477.66523209991584V322.33471657025837C252.99998984000257 313.5893732968166 257.6658048936569 305.507427651675 265.239798480229 301.13414402452213L399.76019135977356 223.46888625969342Z " filter="url(#nnneon-filter2)" opacity="0.25"></path><path d="M375.76019135977356 223.46888625969342C383.33418494634566 219.09682661340452 392.66581505365434 219.09682661340452 400.23980864022644 223.4701102405574L534.7602015197709 301.1353680053861C542.334195106343 305.507427651675 547.0000101599974 313.5893732968166 547.0000101599974 322.33471657025837V477.66523209991584C547.0000101599974 486.4105753733577 542.334195106343 494.49252101849925 534.7602015197709 498.865804645652L400.23980864022644 576.5310624104808C392.66581505365434 580.9031220567697 383.33418494634566 580.9031220567697 375.76019135977356 576.5298384296168L241.239798480229 498.86458066478804C233.6658048936569 494.49252101849925 228.99998984000257 486.4105753733577 228.99998984000257 477.66523209991584V322.33471657025837C228.99998984000257 313.5893732968166 233.6658048936569 305.507427651675 241.239798480229 301.13414402452213L375.76019135977356 223.46888625969342Z " filter="url(#nnneon-filter2)" opacity="0.25"></path><path d="M387.76019135977356 223.46888625969342C395.33418494634566 219.09682661340452 404.66581505365434 219.09682661340452 412.23980864022644 223.4701102405574L546.7602015197709 301.1353680053861C554.334195106343 305.507427651675 559.0000101599974 313.5893732968166 559.0000101599974 322.33471657025837V477.66523209991584C559.0000101599974 486.4105753733577 554.334195106343 494.49252101849925 546.7602015197709 498.865804645652L412.23980864022644 576.5310624104808C404.66581505365434 580.9031220567697 395.33418494634566 580.9031220567697 387.76019135977356 576.5298384296168L253.239798480229 498.86458066478804C245.6658048936569 494.49252101849925 240.99998984000257 486.4105753733577 240.99998984000257 477.66523209991584V322.33471657025837C240.99998984000257 313.5893732968166 245.6658048936569 305.507427651675 253.239798480229 301.13414402452213L387.76019135977356 223.46888625969342Z "></path></g></svg>